<svg width="252" height="200" viewBox="0 0 252 200" fill="none" xmlns="http://www.w3.org/2000/svg">
<g clip-path="url(#clip0_87_1146)">
<path d="M187.909 197.598C184.425 194.654 182.308 190.003 182.863 185.476C183.418 180.949 186.856 176.787 191.314 175.825C195.773 174.864 200.856 177.525 202.21 181.881C202.955 173.484 203.814 164.735 208.279 157.584C212.321 151.108 219.323 146.475 226.911 145.646C234.499 144.818 242.489 147.948 247.221 153.937C251.954 159.927 253.112 168.634 249.798 175.51C247.356 180.576 242.858 184.345 238.144 187.412C222.914 197.239 204.648 201.235 186.705 198.665" fill="#F2F2F2"/>
<path d="M239.717 148.122C233.456 153.221 227.712 158.925 222.568 165.15C214.518 174.86 208.004 185.745 203.253 197.428C202.905 198.281 204.289 198.652 204.633 197.809C212.407 178.821 224.818 162.086 240.729 149.134C241.444 148.552 240.426 147.545 239.717 148.122Z" fill="white"/>
<path d="M61.6878 199.613H41.9292C41.2616 199.612 40.6215 199.346 40.1494 198.874C39.6773 198.402 39.4117 197.762 39.4109 197.094V156.028C39.4117 155.36 39.6773 154.72 40.1494 154.248C40.6215 153.776 41.2616 153.51 41.9292 153.509H61.6878C62.3554 153.51 62.9955 153.776 63.4676 154.248C63.9397 154.72 64.2053 155.36 64.206 156.028V197.094C64.2053 197.762 63.9397 198.402 63.4676 198.874C62.9955 199.346 62.3554 199.612 61.6878 199.613Z" fill="#7CA86C"/>
<path d="M108.566 200H88.8074C88.037 199.999 87.2985 199.693 86.7537 199.148C86.209 198.603 85.9026 197.865 85.9017 197.094V117.285C85.9026 116.515 86.209 115.776 86.7537 115.232C87.2985 114.687 88.037 114.38 88.8074 114.38H108.566C109.336 114.38 110.075 114.687 110.62 115.232C111.164 115.776 111.471 116.515 111.472 117.285V197.094C111.471 197.865 111.164 198.603 110.62 199.148C110.075 199.693 109.336 199.999 108.566 200ZM88.8074 115.154C88.2425 115.155 87.7009 115.38 87.3014 115.779C86.9019 116.179 86.6772 116.72 86.6766 117.285V197.094C86.6772 197.659 86.9019 198.201 87.3014 198.6C87.7009 199 88.2425 199.224 88.8074 199.225H108.566C109.131 199.224 109.673 199 110.072 198.6C110.471 198.201 110.696 197.659 110.697 197.094V117.285C110.696 116.72 110.471 116.179 110.072 115.779C109.673 115.38 109.131 115.155 108.566 115.154H88.8074Z" fill="#3F3D56"/>
<path d="M155.444 200H135.686C134.915 199.999 134.177 199.693 133.632 199.148C133.087 198.603 132.781 197.865 132.78 197.094V66.5327C132.781 65.7624 133.087 65.0238 133.632 64.4791C134.177 63.9343 134.915 63.6279 135.686 63.6271H155.444C156.215 63.6279 156.953 63.9343 157.498 64.4791C158.043 65.0238 158.349 65.7624 158.35 66.5327V197.094C158.349 197.865 158.043 198.603 157.498 199.148C156.953 199.693 156.215 199.999 155.444 200ZM135.686 64.4019C135.121 64.4026 134.579 64.6273 134.18 65.0267C133.78 65.4262 133.555 65.9678 133.555 66.5327V197.094C133.555 197.659 133.78 198.201 134.18 198.6C134.579 199 135.121 199.224 135.686 199.225H155.444C156.009 199.224 156.551 199 156.95 198.6C157.35 198.201 157.574 197.659 157.575 197.094V66.5327C157.574 65.9678 157.35 65.4262 156.95 65.0267C156.551 64.6273 156.009 64.4026 155.444 64.4019H135.686Z" fill="#3F3D56"/>
<path d="M202.76 199.806H183.001C182.334 199.806 181.694 199.54 181.221 199.068C180.749 198.596 180.484 197.956 180.483 197.288V13.2621C180.484 12.5945 180.749 11.9544 181.221 11.4823C181.694 11.0102 182.334 10.7447 183.001 10.7439H202.76C203.427 10.7447 204.068 11.0102 204.54 11.4823C205.012 11.9544 205.277 12.5945 205.278 13.2621V197.288C205.277 197.956 205.012 198.596 204.54 199.068C204.068 199.54 203.427 199.806 202.76 199.806Z" fill="#7CA86C"/>
<path d="M79.874 86.1467C79.9457 85.5817 79.8926 85.0078 79.7185 84.4656C79.5444 83.9233 79.2536 83.4258 78.8664 83.008C78.4792 82.5903 78.0052 82.2626 77.4776 82.0479C76.9501 81.8332 76.3819 81.7368 75.8131 81.7655L68.926 69.132L67.3763 74.5559L72.0947 86.1343C72.2062 87.0867 72.6632 87.9651 73.3791 88.6031C74.0949 89.2411 75.02 89.5943 75.9789 89.5958C76.9378 89.5974 77.8639 89.2471 78.5818 88.6114C79.2997 87.9757 79.7595 87.0988 79.874 86.1467Z" fill="#A0616A"/>
<path d="M26.8113 136.029L30.6472 138.83L43.2752 125.366L37.6134 121.232L26.8113 136.029Z" fill="#A0616A"/>
<path d="M35.4451 147.793L23.3885 138.991L26.7892 134.333L34.1876 139.734C35.423 140.636 36.2496 141.992 36.4854 143.503C36.7212 145.015 36.347 146.558 35.4451 147.793Z" fill="#2F2E41"/>
<path d="M47.1065 150.854L51.8563 150.853L54.1157 132.533L47.1057 132.533L47.1065 150.854Z" fill="#A0616A"/>
<path d="M61.0166 155.263L46.0889 155.264L46.0886 149.497L55.2488 149.496C56.7785 149.496 58.2455 150.104 59.3272 151.185C60.4088 152.267 61.0165 153.734 61.0166 155.263Z" fill="#2F2E41"/>
<path d="M61.3713 79.3986C61.3713 79.3986 63.6959 101.869 57.8845 117.366L53.6229 146.81H46.2618L47.0367 111.942L44.3247 80.9483C44.3247 80.9483 49.7486 67.0011 61.3713 79.3986Z" fill="#2F2E41"/>
<path d="M36.1889 80.9482L43.9373 107.68L28.8278 131.701L36.3826 138.093L53.6229 111.167L48.5864 78.2362L36.1889 80.9482Z" fill="#2F2E41"/>
<path d="M55.949 21.0038C61.2042 21.0038 65.4645 16.7436 65.4645 11.4883C65.4645 6.23302 61.2042 1.97278 55.949 1.97278C50.6937 1.97278 46.4335 6.23302 46.4335 11.4883C46.4335 16.7436 50.6937 21.0038 55.949 21.0038Z" fill="#A0616A"/>
<path d="M48.0052 24.5783C48.0052 24.5783 53.8166 20.7041 60.4028 29.2274L62.1462 82.8855C62.1462 82.8855 57.1097 75.9119 46.6493 82.4981C36.1888 89.0843 33.8643 81.7232 33.8643 81.7232C33.8643 81.7232 26.5033 26.3217 48.0052 24.5783Z" fill="#CCCCCC"/>
<path d="M59.934 29.092C61.6054 29.1824 63.1843 29.8876 64.3671 31.072C65.5498 32.2564 66.2528 33.8364 66.3408 35.5079L67.5701 58.8652L75.706 80.9483L71.0569 84.8225L55.9474 58.4778L52.8539 36.8235C52.7121 35.831 52.7922 34.8194 53.0882 33.8615C53.3843 32.9036 53.8891 32.0233 54.5662 31.2839C55.2433 30.5445 56.0759 29.9645 57.0041 29.5854C57.9322 29.2064 58.9329 29.0379 59.934 29.092Z" fill="#CCCCCC"/>
<path d="M48.9571 18.6259C50.5127 20.283 53.4017 19.3934 53.6044 17.1296C53.6203 16.9539 53.6191 16.777 53.6009 16.6015C53.4963 15.5987 52.917 14.6883 53.0557 13.6296C53.0871 13.3661 53.1853 13.115 53.341 12.9C54.5806 11.2401 57.4905 13.6425 58.6604 12.1398C59.3778 11.2183 58.5345 9.76759 59.085 8.73774C59.8116 7.37851 61.9636 8.04902 63.3132 7.30464C64.8147 6.47642 64.7249 4.17261 63.7365 2.77132C62.5311 1.0624 60.4176 0.150503 58.3304 0.0190693C56.2433 -0.112364 54.1705 0.451855 52.2219 1.21123C50.008 2.07402 47.8125 3.26643 46.4501 5.21316C44.7932 7.58059 44.6338 10.7634 45.4624 13.5316C45.9665 15.2156 47.6868 17.2727 48.9571 18.6259Z" fill="#2F2E41"/>
<path d="M251.388 199.836H0.611692C0.489579 199.835 0.372586 199.786 0.286364 199.7C0.200143 199.613 0.151733 199.496 0.151733 199.374C0.151733 199.252 0.200143 199.135 0.286364 199.049C0.372586 198.962 0.489579 198.913 0.611692 198.913H251.388C251.51 198.913 251.627 198.962 251.714 199.049C251.8 199.135 251.848 199.252 251.848 199.374C251.848 199.496 251.8 199.613 251.714 199.7C251.627 199.786 251.51 199.835 251.388 199.836Z" fill="#3F3D56"/>
</g>
<defs>
<clipPath id="clip0_87_1146">
<rect width="251.699" height="200" fill="white" transform="translate(0.150391)"/>
</clipPath>
</defs>
</svg>
