<svg width="274" height="200" viewBox="0 0 274 200" fill="none" xmlns="http://www.w3.org/2000/svg">
<g clip-path="url(#clip0_84_790)">
<path d="M266.448 194.107L263.741 194.973L259.114 184.944L263.109 183.667L266.448 194.107Z" fill="#FFB6B6"/>
<path d="M267.977 196.51L259.25 199.301L259.214 199.191C258.926 198.29 259.008 197.311 259.441 196.47C259.874 195.63 260.624 194.995 261.525 194.707L262.732 192.988L266.093 193.246L266.855 193.002L267.977 196.51Z" fill="#2F2E41"/>
<path d="M240.785 196.806H237.943L236.592 185.845H240.785L240.785 196.806Z" fill="#FFB6B6"/>
<path d="M241.51 199.561L232.347 199.561V199.445C232.347 198.499 232.723 197.592 233.391 196.923C234.06 196.254 234.967 195.878 235.913 195.878L237.587 194.609L240.71 195.878L241.51 195.879L241.51 199.561Z" fill="#2F2E41"/>
<path d="M227.212 83.5333C226.999 83.7991 226.847 84.1085 226.766 84.4396C226.685 84.7707 226.678 85.1154 226.745 85.4496C226.812 85.7837 226.952 86.0991 227.154 86.3735C227.356 86.6479 227.615 86.8747 227.915 87.0379L226.552 95.2085L230.486 93.4624L231.177 85.9711C231.418 85.4503 231.46 84.8593 231.294 84.3101C231.128 83.7608 230.766 83.2915 230.278 82.991C229.789 82.6905 229.207 82.5797 228.642 82.6796C228.077 82.7796 227.568 83.0833 227.212 83.5333Z" fill="#FFB6B6"/>
<path d="M263.083 151.312C263.083 151.312 263.746 142.68 261.397 141.077C259.048 139.474 239.68 138.667 239.68 138.667L238.477 140.249C238.477 140.249 238.368 140.987 236.544 147.005L235.801 180.592C235.728 183.867 235.157 187.981 236.524 188.822L237.189 192.145H240.845L242.865 186.557C243.736 185.151 244.106 183.493 243.918 181.85L245.02 176.917C244.943 176.839 244.889 176.742 244.864 176.636C244.739 175.9 244.904 175.146 245.324 174.53C245.422 174.386 245.529 174.249 245.646 174.12L249.687 156.045L255.137 177.189L258.501 184.699C258.17 185.486 258.39 186.199 258.993 186.861C258.769 187.477 259.737 187.909 260.153 188.705L261.452 191.148L265.108 189.154L265.441 187.16C265.662 186.569 265.067 186.176 264.628 184.948C265.447 184.079 265.402 183.232 264.613 182.405L263.231 176.446L263.215 173.713L263.198 170.793L263.083 151.312Z" fill="#2F2E41"/>
<path d="M247.797 99.9957C251.304 99.9957 254.148 97.1521 254.148 93.6444C254.148 90.1367 251.304 87.2931 247.797 87.2931C244.289 87.2931 241.445 90.1367 241.445 93.6444C241.445 97.1521 244.289 99.9957 247.797 99.9957Z" fill="#FFB6B6"/>
<path d="M254.186 94.6388L254.081 94.429C253.919 94.1046 252.576 91.4078 252.407 90.7143L250.717 90.9131L246.316 90.9138L246.928 89.9965L245.311 90.2074C244.72 90.2792 244.154 90.4922 243.663 90.8284C243.362 91.0287 243.107 91.2915 242.916 91.599C242.338 92.588 241.456 94.2058 241.447 94.2221L241.362 94.3768L240.629 93.1433C240.62 93.0955 239.711 88.3556 242.752 86.748C243.186 85.9011 243.856 85.1989 244.683 84.7273C245.509 84.2557 246.455 84.0352 247.405 84.0926C247.752 83.6968 248.241 83.4536 248.766 83.4158C249.488 83.3781 250.237 83.7571 250.989 84.5469C251.988 85.5958 253.356 87.0323 254.183 88.6273L254.412 88.953C254.736 89.4191 254.897 89.9796 254.868 90.5468C255.044 91.4519 254.982 92.3872 254.687 93.2609L254.186 94.6388Z" fill="#2F2E41"/>
<path d="M263.054 105.731L256.15 103.798L252.636 101.191L245.732 102.292L245.702 102.331C244.494 103.901 242.63 105.453 240.65 105.514C240.14 105.531 239.634 105.603 239.14 105.731L238.477 117.849V128.684C238.581 128.719 238.673 128.78 238.747 128.861C238.82 128.942 238.871 129.041 238.894 129.147C239.089 130.252 239.071 131.383 238.84 132.481C238.759 132.864 238.637 133.237 238.477 133.594C238.67 133.993 238.77 134.43 238.77 134.873C238.77 135.316 238.67 135.754 238.477 136.152C237.887 136.715 237.963 137.328 238.477 137.974V140.249C249.682 149.598 261.368 141.593 261.368 141.593L260.993 123.797L263.054 105.731Z" fill="#3F3D56"/>
<path d="M240.688 107.396L239.14 105.731L230.607 104.764L231.408 91.6588L226.756 88.34L224.649 99.7126C223.924 100.339 223.79 100.957 224.306 101.564C223.726 102.724 223.577 103.667 223.774 104.436L223.338 106.79L239.127 117.849L240.688 107.396Z" fill="#3F3D56"/>
<path d="M261.794 150.249C261.61 149.962 261.492 149.638 261.447 149.3C261.402 148.962 261.432 148.619 261.534 148.294C261.636 147.968 261.808 147.67 262.038 147.418C262.268 147.167 262.551 146.969 262.865 146.839L262.379 138.569L266.106 140.724L265.996 148.246C266.18 148.79 266.158 149.382 265.935 149.91C265.712 150.439 265.302 150.867 264.784 151.114C264.267 151.361 263.676 151.409 263.125 151.249C262.574 151.09 262.1 150.734 261.794 150.249Z" fill="#FFB6B6"/>
<path d="M260.46 107.799L263.054 105.731C263.054 105.731 265.706 107.194 266.513 109.817C267.32 112.439 268.732 127.369 268.732 127.369L268.95 132.928C269.229 133.81 269.156 134.596 268.491 135.223C269.49 136.257 269.341 137.118 267.976 137.796L266.561 146.536L262.117 145.613L262.68 128.378L259.048 117.281L260.46 107.799Z" fill="#3F3D56"/>
<path d="M82.9679 39.334H82.0584V14.4197C82.0584 12.5261 81.6855 10.651 80.9608 8.90154C80.2361 7.15206 79.174 5.56244 77.835 4.22345C76.496 2.88445 74.9064 1.8223 73.1569 1.09764C71.4074 0.372979 69.5324 1.30947e-06 67.6387 0H14.8544C11.03 -7.93356e-06 7.36232 1.5192 4.65809 4.22342C1.95387 6.92763 0.434644 10.5953 0.434635 14.4197V151.102C0.434633 154.926 1.95384 158.594 4.65806 161.298C7.36228 164.002 11.03 165.521 14.8543 165.521H67.6387C69.5323 165.521 71.4074 165.148 73.1568 164.424C74.9063 163.699 76.496 162.637 77.835 161.298C79.174 159.959 80.2361 158.369 80.9608 156.62C81.6854 154.87 82.0584 152.995 82.0584 151.102V57.0685H82.9679V39.334Z" fill="#3F3D56"/>
<path d="M68.2205 3.75149H61.3304C61.6473 4.52832 61.7682 5.37115 61.6826 6.20574C61.597 7.04032 61.3075 7.84105 60.8395 8.53738C60.3715 9.23371 59.7395 9.80427 58.9991 10.1988C58.2587 10.5933 57.4326 10.7997 56.5936 10.7998H26.3542C25.5152 10.7997 24.6891 10.5933 23.9487 10.1988C23.2083 9.80427 22.5762 9.23371 22.1083 8.53738C21.6403 7.84105 21.3507 7.04032 21.2651 6.20573C21.1795 5.37113 21.3005 4.5283 21.6174 3.75146H15.182C12.326 3.75146 9.587 4.88599 7.56751 6.90547C5.54803 8.92495 4.41349 11.664 4.41349 14.5199V151.001C4.41349 152.415 4.69202 153.816 5.23319 155.122C5.77435 156.429 6.56755 157.616 7.5675 158.616C8.56744 159.616 9.75455 160.409 11.061 160.95C12.3675 161.491 13.7678 161.77 15.182 161.77H68.2205C69.6347 161.77 71.0349 161.491 72.3414 160.95C73.6479 160.409 74.835 159.616 75.835 158.616C76.8349 157.616 77.6281 156.429 78.1693 155.122C78.7105 153.816 78.989 152.415 78.989 151.001V14.52C78.989 13.1058 78.7105 11.7055 78.1693 10.399C77.6281 9.09255 76.8349 7.90544 75.835 6.90549C74.835 5.90555 73.6479 5.11235 72.3414 4.57118C71.0349 4.03001 69.6346 3.75148 68.2205 3.75149Z" fill="white"/>
<path d="M67.7105 54.8688C67.7143 57.9691 67.1615 61.0449 66.0782 63.9498C65.5863 65.2804 64.9828 66.567 64.2743 67.7959C61.9965 71.7706 58.7095 75.0734 54.7459 77.3703C50.7822 79.6672 46.2823 80.8768 41.7012 80.8768C37.1201 80.8768 32.6202 79.6672 28.6565 77.3703C24.6928 75.0734 21.4059 71.7706 19.128 67.7959C18.8974 67.3962 18.6788 66.9905 18.472 66.5788C16.704 63.0717 15.7532 59.2097 15.6909 55.2826C15.6285 51.3555 16.4563 47.4653 18.1121 43.9038C19.7679 40.3423 22.2087 37.202 25.2514 34.7185C28.2941 32.235 31.8598 30.4728 35.6808 29.5641C39.5018 28.6553 43.479 28.6237 47.314 29.4715C51.1489 30.3194 54.7421 32.0246 57.824 34.4594C60.9058 36.8942 63.3963 39.9953 65.1085 43.53C66.8208 47.0647 67.7103 50.9412 67.7105 54.8688Z" fill="#F1F1F1"/>
<path d="M43.0534 59.2597C45.7996 59.2597 48.0258 57.0335 48.0258 54.2873C48.0258 51.5411 45.7996 49.3148 43.0534 49.3148C40.3072 49.3148 38.0809 51.5411 38.0809 54.2873C38.0809 57.0335 40.3072 59.2597 43.0534 59.2597Z" fill="#FF6582"/>
<path d="M18.4721 66.5788C20.6629 64.2112 23.5917 60.4522 26.3386 63.1683C27.7171 64.4495 29.8746 67.6243 31.9399 65.5487L48.0674 49.4212C48.371 49.1215 48.7315 48.8854 49.1276 48.727C49.5237 48.5685 49.9475 48.4908 50.3741 48.4984C50.8007 48.5061 51.2215 48.5989 51.6117 48.7715C52.0019 48.944 52.3536 49.1928 52.6463 49.5032L66.0782 63.9498C65.5863 65.2804 64.9828 66.567 64.2743 67.7959H19.1281L18.4721 66.5788Z" fill="#7CA86C"/>
<path d="M53.905 107.686C53.727 107.686 53.5565 107.757 53.4308 107.883C53.3051 108.009 53.2345 108.18 53.2345 108.357C53.2345 108.535 53.3051 108.706 53.4308 108.832C53.5565 108.958 53.727 109.029 53.905 109.029H60.956C61.1342 109.029 61.3051 108.959 61.4311 108.833C61.5571 108.707 61.6279 108.536 61.6279 108.357C61.6279 108.179 61.5571 108.008 61.4311 107.882C61.3051 107.756 61.1342 107.686 60.956 107.686H53.905Z" fill="#7CA86C"/>
<path d="M22.1381 97.8163C21.9599 97.8163 21.789 97.8871 21.663 98.0131C21.5369 98.1391 21.4662 98.31 21.4662 98.4882C21.4662 98.6664 21.5369 98.8373 21.663 98.9634C21.789 99.0894 21.9599 99.1602 22.1381 99.1602H61.2644C61.4426 99.1602 61.6135 99.0894 61.7395 98.9634C61.8655 98.8373 61.9363 98.6664 61.9363 98.4882C61.9363 98.31 61.8655 98.1391 61.7395 98.0131C61.6135 97.8871 61.4426 97.8163 61.2644 97.8163H22.1381Z" fill="#E5E5E5"/>
<path d="M22.1381 102.751C21.9601 102.751 21.7896 102.822 21.6639 102.948C21.5382 103.074 21.4677 103.245 21.4677 103.423C21.4677 103.601 21.5382 103.772 21.6639 103.898C21.7896 104.023 21.9601 104.094 22.1381 104.095H61.2644C61.3528 104.095 61.4403 104.078 61.522 104.044C61.6037 104.01 61.6779 103.961 61.7405 103.899C61.803 103.836 61.8527 103.762 61.8865 103.68C61.9204 103.599 61.9378 103.511 61.9378 103.423C61.9378 103.335 61.9204 103.247 61.8865 103.165C61.8527 103.084 61.803 103.01 61.7405 102.947C61.6779 102.885 61.6037 102.835 61.522 102.802C61.4403 102.768 61.3528 102.751 61.2644 102.751H22.1381Z" fill="#E5E5E5"/>
<path d="M53.905 139.35C53.7268 139.35 53.5559 139.421 53.4298 139.547C53.3038 139.673 53.233 139.843 53.233 140.022C53.233 140.2 53.3038 140.371 53.4298 140.497C53.5559 140.623 53.7268 140.694 53.905 140.694H60.956C61.1342 140.694 61.3051 140.623 61.4311 140.497C61.5571 140.371 61.6279 140.2 61.6279 140.022C61.6279 139.843 61.5571 139.673 61.4311 139.547C61.3051 139.421 61.1342 139.35 60.956 139.35H53.905Z" fill="#7CA86C"/>
<path d="M22.1381 129.48C21.9599 129.48 21.789 129.551 21.663 129.677C21.5369 129.803 21.4662 129.974 21.4662 130.152C21.4662 130.33 21.5369 130.501 21.663 130.627C21.789 130.753 21.9599 130.824 22.1381 130.824H61.2644C61.3528 130.824 61.4403 130.807 61.522 130.773C61.6037 130.74 61.6779 130.69 61.7405 130.628C61.803 130.566 61.8527 130.491 61.8865 130.41C61.9204 130.328 61.9378 130.241 61.9378 130.152C61.9378 130.064 61.9204 129.976 61.8865 129.895C61.8527 129.813 61.803 129.739 61.7405 129.677C61.6779 129.614 61.6037 129.565 61.522 129.531C61.4403 129.497 61.3528 129.48 61.2644 129.48H22.1381Z" fill="#E5E5E5"/>
<path d="M22.1381 134.415C21.9599 134.415 21.789 134.486 21.663 134.612C21.5369 134.738 21.4662 134.909 21.4662 135.087C21.4662 135.265 21.5369 135.436 21.663 135.562C21.789 135.688 21.9599 135.759 22.1381 135.759H61.2644C61.4426 135.759 61.6135 135.688 61.7395 135.562C61.8655 135.436 61.9363 135.265 61.9363 135.087C61.9363 134.909 61.8655 134.738 61.7395 134.612C61.6135 134.486 61.4426 134.415 61.2644 134.415H22.1381Z" fill="#E5E5E5"/>
<path d="M223.484 75.7435L218.115 73.316C218.088 74.0329 217.885 74.7322 217.525 75.3524C217.164 75.9725 216.656 76.4944 216.046 76.8721C215.436 77.2498 214.743 77.4717 214.027 77.5183C213.311 77.5648 212.595 77.4346 211.941 77.139L188.378 66.4848C187.725 66.1892 187.154 65.7373 186.716 65.169C186.278 64.6007 185.986 63.9335 185.867 63.226C185.748 62.5186 185.804 61.7926 186.032 61.1122C186.259 60.4317 186.65 59.8176 187.171 59.3239L182.156 57.0566C179.931 56.0503 177.397 55.9693 175.112 56.8314C172.827 57.6934 170.978 59.4279 169.972 61.6532L121.886 167.998C121.387 169.1 121.111 170.29 121.072 171.498C121.034 172.707 121.233 173.911 121.66 175.043C122.087 176.174 122.733 177.211 123.56 178.093C124.387 178.975 125.38 179.685 126.482 180.183L167.809 198.87C170.035 199.876 172.569 199.957 174.854 199.095C177.139 198.233 178.988 196.499 179.994 194.273L228.08 87.9283C228.579 86.8264 228.855 85.6372 228.894 84.4285C228.932 83.2198 228.732 82.0154 228.306 80.8839C227.879 79.7524 227.233 78.7161 226.406 77.8341C225.579 76.9522 224.586 76.2418 223.484 75.7435Z" fill="#E4E4E4"/>
<path d="M175.654 126.38C172.036 124.736 168.913 122.169 166.601 118.936C164.288 115.703 162.868 111.919 162.481 107.963C162.442 107.571 162.414 107.168 162.398 106.766C162.24 103.238 162.922 99.7239 164.386 96.5112C165.749 93.5024 167.754 90.8292 170.262 88.6801C172.77 86.531 175.719 84.9584 178.901 84.0732C182.083 83.1879 185.42 83.0117 188.677 83.5568C191.935 84.1019 195.033 85.3552 197.753 87.2282C200.473 89.1011 202.749 91.5482 204.421 94.3967C206.092 97.2452 207.119 100.426 207.427 103.714C207.735 107.002 207.318 110.318 206.205 113.428C205.092 116.537 203.311 119.365 200.986 121.711C200.121 122.587 199.183 123.389 198.184 124.108C194.958 126.43 191.178 127.863 187.223 128.262C183.269 128.66 179.279 128.011 175.654 126.38ZM193.982 85.847C188.686 83.4601 182.66 83.2711 177.225 85.3217C171.791 87.3722 167.391 91.4948 164.992 96.785C163.571 99.9032 162.909 103.314 163.062 106.738C163.078 107.128 163.105 107.518 163.143 107.899C163.512 111.74 164.888 115.416 167.133 118.555C169.378 121.694 172.412 124.184 175.929 125.774C179.445 127.364 183.319 127.997 187.158 127.61C190.998 127.223 194.667 125.829 197.795 123.568C198.765 122.871 199.674 122.093 200.514 121.243C203.003 118.731 204.847 115.654 205.889 112.275C206.931 108.896 207.14 105.315 206.498 101.838C205.857 98.3606 204.383 95.0901 202.204 92.3056C200.024 89.5211 197.203 87.3052 193.982 85.847Z" fill="white"/>
<path d="M177.88 84.7128L177.259 84.9506L193.054 126.184L193.675 125.946L177.88 84.7128Z" fill="white"/>
<path d="M205.086 97.5739L163.851 113.366L164.089 113.987L205.323 98.1947L205.086 97.5739Z" fill="white"/>
<path d="M184.636 158.596L145.63 140.958C145.341 140.827 145.116 140.587 145.004 140.29C144.892 139.993 144.902 139.663 145.033 139.374L148.702 131.259C148.833 130.97 149.074 130.745 149.371 130.633C149.668 130.521 149.997 130.531 150.286 130.661L189.292 148.299C189.581 148.43 189.807 148.67 189.919 148.967C190.031 149.264 190.02 149.594 189.89 149.883L186.221 157.998C186.089 158.287 185.849 158.512 185.552 158.624C185.255 158.736 184.926 158.726 184.636 158.596ZM150.012 131.267C149.884 131.209 149.737 131.204 149.605 131.254C149.473 131.304 149.366 131.404 149.308 131.533L145.638 139.648C145.58 139.777 145.576 139.923 145.626 140.055C145.675 140.187 145.776 140.294 145.904 140.353L184.91 157.99C185.039 158.048 185.185 158.053 185.317 158.003C185.45 157.953 185.556 157.853 185.615 157.724L189.284 149.609C189.342 149.48 189.347 149.334 189.297 149.202C189.247 149.07 189.147 148.963 189.018 148.904L150.012 131.267Z" fill="white"/>
<path d="M175.187 179.492L136.181 161.855C135.892 161.724 135.667 161.484 135.555 161.187C135.443 160.89 135.453 160.56 135.584 160.271L139.253 152.156C139.384 151.867 139.625 151.642 139.922 151.529C140.219 151.417 140.548 151.428 140.837 151.558L179.843 169.195C180.132 169.327 180.358 169.567 180.47 169.864C180.582 170.161 180.571 170.49 180.441 170.78L176.772 178.895C176.64 179.184 176.4 179.409 176.103 179.521C175.806 179.633 175.477 179.623 175.187 179.492ZM140.563 152.164C140.435 152.106 140.288 152.101 140.156 152.151C140.024 152.201 139.917 152.301 139.859 152.43L136.189 160.545C136.131 160.673 136.127 160.82 136.177 160.952C136.226 161.084 136.327 161.191 136.455 161.249L175.461 178.887C175.59 178.945 175.736 178.949 175.869 178.9C176.001 178.85 176.108 178.749 176.166 178.621L179.835 170.506C179.893 170.377 179.898 170.231 179.848 170.099C179.798 169.966 179.698 169.86 179.569 169.801L140.563 152.164Z" fill="white"/>
<path d="M160.112 126.618C159.31 122.622 157.577 118.872 155.054 115.671C152.49 112.421 149.358 109.663 145.81 107.529C142.143 105.302 138.15 103.665 133.975 102.677C128.787 101.43 123.429 101.024 118.104 101.076C112.74 101.127 107.394 101.63 102.064 102.189C101.387 102.261 100.709 102.332 100.032 102.405C99.4004 102.472 99.3935 103.47 100.032 103.402C105.283 102.841 110.543 102.29 115.824 102.121C121.063 101.953 126.341 102.159 131.496 103.158C135.79 103.955 139.932 105.42 143.773 107.499C147.35 109.437 150.558 111.989 153.252 115.038C155.89 118.018 157.798 121.572 158.825 125.418C158.949 125.903 159.056 126.391 159.15 126.883C159.271 127.512 160.232 127.246 160.112 126.618Z" fill="#2F2E41"/>
<path d="M103.593 95.2695L95.6288 103.741C95.5757 103.795 95.5357 103.861 95.5116 103.933C95.4875 104.005 95.48 104.082 95.4897 104.157C95.4994 104.232 95.5261 104.304 95.5676 104.368C95.6092 104.431 95.6646 104.485 95.7297 104.524L102.915 107.959C103.491 108.234 103.998 107.374 103.418 107.098L96.2329 103.663L96.3339 104.446L104.298 95.9745C104.738 95.5073 104.034 94.8008 103.593 95.2695Z" fill="#2F2E41"/>
<path d="M273.17 200H121.177C121.072 200 120.972 199.958 120.897 199.884C120.823 199.81 120.782 199.709 120.782 199.604C120.782 199.499 120.823 199.399 120.897 199.324C120.972 199.25 121.072 199.208 121.177 199.208H273.17C273.275 199.208 273.375 199.25 273.449 199.324C273.524 199.399 273.565 199.499 273.565 199.604C273.565 199.709 273.524 199.81 273.449 199.884C273.375 199.958 273.275 200 273.17 200Z" fill="#CACACA"/>
</g>
<defs>
<clipPath id="clip0_84_790">
<rect width="273.131" height="200" fill="white" transform="translate(0.434631)"/>
</clipPath>
</defs>
</svg>
