<svg width="220" height="200" viewBox="0 0 220 200" fill="none" xmlns="http://www.w3.org/2000/svg">
<g clip-path="url(#clip0_87_1039)">
<path d="M97.7524 48.291H0.428772V110.621H97.7524V48.291Z" fill="#F2F2F2"/>
<path d="M94.9695 56.1088H3.21173V106.934H94.9695V56.1088Z" fill="white"/>
<path d="M97.7109 48.2358H0.387207V52.3705H97.7109V48.2358Z" fill="#7CA86C"/>
<path d="M3.45975 51.116C3.88298 51.116 4.22608 50.7729 4.22608 50.3497C4.22608 49.9265 3.88298 49.5834 3.45975 49.5834C3.03652 49.5834 2.69342 49.9265 2.69342 50.3497C2.69342 50.7729 3.03652 51.116 3.45975 51.116Z" fill="white"/>
<path d="M6.36856 51.116C6.79179 51.116 7.13489 50.7729 7.13489 50.3497C7.13489 49.9265 6.79179 49.5834 6.36856 49.5834C5.94533 49.5834 5.60223 49.9265 5.60223 50.3497C5.60223 50.7729 5.94533 51.116 6.36856 51.116Z" fill="white"/>
<path d="M9.27731 51.116C9.70054 51.116 10.0436 50.7729 10.0436 50.3497C10.0436 49.9265 9.70054 49.5834 9.27731 49.5834C8.85408 49.5834 8.51099 49.9265 8.51099 50.3497C8.51099 50.7729 8.85408 51.116 9.27731 51.116Z" fill="white"/>
<path d="M35.1266 61.3823H11.5491V101.66H35.1266V61.3823Z" fill="#F2F2F2"/>
<path d="M58.8443 61.3823H39.1965V72.4693H58.8443V61.3823Z" fill="#7CA86C"/>
<path d="M58.8443 75.5568H39.1965V87.4858H58.8443V75.5568Z" fill="#F2F2F2"/>
<path d="M58.8443 90.5734H39.1965V101.66H58.8443V90.5734Z" fill="#F2F2F2"/>
<path d="M86.6321 61.3823H63.0546V78.9353H86.6321V61.3823Z" fill="#F2F2F2"/>
<path d="M86.6321 84.1074H63.0546V101.66H86.6321V84.1074Z" fill="#F2F2F2"/>
<path d="M219.613 48.291H122.289V110.621H219.613V48.291Z" fill="#F2F2F2"/>
<path d="M216.83 56.1088H125.072V106.934H216.83V56.1088Z" fill="white"/>
<path d="M219.571 48.2358H122.248V52.3705H219.571V48.2358Z" fill="#7CA86C"/>
<path d="M125.32 51.116C125.743 51.116 126.086 50.7729 126.086 50.3497C126.086 49.9265 125.743 49.5834 125.32 49.5834C124.897 49.5834 124.554 49.9265 124.554 50.3497C124.554 50.7729 124.897 51.116 125.32 51.116Z" fill="white"/>
<path d="M128.229 51.116C128.652 51.116 128.995 50.7729 128.995 50.3497C128.995 49.9265 128.652 49.5834 128.229 49.5834C127.806 49.5834 127.463 49.9265 127.463 50.3497C127.463 50.7729 127.806 51.116 128.229 51.116Z" fill="white"/>
<path d="M131.138 51.116C131.561 51.116 131.904 50.7729 131.904 50.3497C131.904 49.9265 131.561 49.5834 131.138 49.5834C130.714 49.5834 130.371 49.9265 130.371 50.3497C130.371 50.7729 130.714 51.116 131.138 51.116Z" fill="white"/>
<path d="M208.471 61.3823H184.894V101.66H208.471V61.3823Z" fill="#F2F2F2"/>
<path d="M180.987 61.3816H133.431V72.4686H180.987V61.3816Z" fill="#7CA86C"/>
<path d="M180.987 75.5562H133.431V87.4852H180.987V75.5562Z" fill="#F2F2F2"/>
<path d="M180.987 90.5726H133.431V101.66H180.987V90.5726Z" fill="#F2F2F2"/>
<path d="M109.449 0H108.905V29.7219H109.449V0Z" fill="#CCCCCC"/>
<path d="M163.851 48.2186H163.307V29.994H55.0468V48.2186H54.5027V29.45H163.851V48.2186Z" fill="#CCCCCC"/>
<path d="M113.179 83.0902L112.77 81.0422C112.77 81.0422 106.745 78.9941 106.071 83.0902H113.179Z" fill="#E6E6E6"/>
<path d="M101.617 195.86L97.6669 195.859L95.7878 180.624L101.617 180.625L101.617 195.86Z" fill="#FFB8B8"/>
<path d="M102.624 199.688L89.8881 199.688V199.527C89.8882 198.212 90.4105 196.951 91.3401 196.022C92.2698 195.092 93.5306 194.57 94.8453 194.57H94.8456L102.624 194.57L102.624 199.688Z" fill="#2F2E41"/>
<path d="M115.196 195.86L119.146 195.859L121.025 180.624L115.195 180.625L115.196 195.86Z" fill="#FFB8B8"/>
<path d="M114.188 194.57L121.967 194.57H121.967C123.282 194.57 124.543 195.092 125.472 196.022C126.402 196.951 126.924 198.212 126.924 199.527V199.688L114.189 199.688L114.188 194.57Z" fill="#2F2E41"/>
<path d="M118.914 91.6921L123.42 91.2825L126.287 104.8L125.877 117.088L121.372 133.473L115.228 129.786L118.505 112.992L118.914 91.6921Z" fill="#2F2E41"/>
<path d="M121.766 132.039L120.757 140.64L121.986 160.712V190.621L114.203 190.204L112.565 159.073L108.059 144.737L104.782 161.121L102.734 191.842L94.7469 191.202V161.013L94.5421 139.002L97.4093 130.4L121.766 132.039Z" fill="#2F2E41"/>
<path d="M104.987 83.4998C104.987 83.4998 107.855 79.4037 113.179 82.271L115.637 85.5479L123.42 91.2825L121.781 110.534L123.829 134.701L94.7469 134.292L99.6623 110.125V84.3191L104.987 83.4998Z" fill="#2F2E41"/>
<path opacity="0.25" d="M120.757 98.0813L123.106 126.163L120.143 110.944L120.757 98.0813Z" fill="black"/>
<path d="M99.3937 139.923C99.6772 139.585 99.883 139.188 99.9966 138.761C100.11 138.334 100.129 137.888 100.051 137.453C99.9736 137.018 99.8015 136.606 99.5472 136.245C99.293 135.884 98.9626 135.583 98.5794 135.363L99.4551 128.515L95.4235 126.968L94.3227 136.656C93.9964 137.324 93.9266 138.089 94.1264 138.805C94.3262 139.521 94.7818 140.139 95.4069 140.542C96.032 140.945 96.7831 141.104 97.5179 140.99C98.2526 140.876 98.9201 140.497 99.3937 139.923Z" fill="#FFB8B8"/>
<path d="M94.3373 133.063H100.891V130.195H94.3373V133.063Z" fill="#E6E6E6"/>
<path d="M103.963 87.8007L99.6623 84.319C99.6623 84.319 96.5902 84.1142 96.1806 88.62C95.771 93.1257 95.2727 112.377 95.2727 112.377L93.723 131.629L102.325 132.039L103.963 111.202V87.8007Z" fill="#2F2E41"/>
<path d="M116.763 74.4884C118.942 70.5024 117.477 65.5047 113.491 63.3257C109.505 61.1467 104.507 62.6117 102.328 66.5977C100.149 70.5837 101.614 75.5815 105.6 77.7604C109.586 79.9394 114.584 78.4745 116.763 74.4884Z" fill="#FFB8B8"/>
<path d="M108.931 77.7989C110.944 78.282 113.064 78 114.88 77.0076C116.696 76.0152 118.078 74.3833 118.759 72.4288C119.439 70.4743 119.369 68.3367 118.561 66.4311C117.754 64.5255 116.267 62.988 114.39 62.1171C112.944 61.4718 111.363 61.1881 109.783 61.2904C107.323 61.4197 104.932 62.3289 102.47 62.262L102.113 62.8357L100.768 62.5094L100.479 63.5774L100.125 63.5651C99.4905 64.7445 100.512 66.4331 101.851 66.4188C102.381 66.4132 102.883 66.1923 103.401 66.0812C103.92 65.9701 104.53 65.9978 104.888 66.3894C105.352 66.8983 105.15 67.6924 105.053 68.3747C104.956 69.057 105.198 69.9761 105.887 69.9983C106.239 70.0097 106.574 69.7574 106.919 69.8237C107.322 69.901 107.526 70.3872 107.467 70.793C107.367 71.1912 107.204 71.5709 106.985 71.9178C105.987 73.9109 106.83 76.6221 108.782 77.6975" fill="#2F2E41"/>
<path d="M160.995 200H57.359C57.2868 200 57.2177 199.971 57.1666 199.92C57.1156 199.869 57.087 199.8 57.087 199.728C57.087 199.656 57.1156 199.587 57.1666 199.536C57.2177 199.485 57.2868 199.456 57.359 199.456H160.995C161.067 199.456 161.136 199.485 161.187 199.536C161.238 199.587 161.267 199.656 161.267 199.728C161.267 199.8 161.238 199.869 161.187 199.92C161.136 199.971 161.067 200 160.995 200Z" fill="#CCCCCC"/>
</g>
<defs>
<clipPath id="clip0_87_1039">
<rect width="219.226" height="200" fill="white" transform="translate(0.387207)"/>
</clipPath>
</defs>
</svg>
